<svg xmlns="http://www.w3.org/2000/svg" xmlns:xlink="http://www.w3.org/1999/xlink" fill="none" version="1.1" width="800" height="800" viewBox="0 0 800 800"><defs><clipPath id="master_svg0_7_198"><rect x="0" y="0" width="800" height="800" rx="0"/></clipPath><linearGradient x1="0.5" y1="0" x2="0.5" y2="1" id="master_svg1_7_195"><stop offset="0%" stop-color="#00A6F5" stop-opacity="1"/><stop offset="100%" stop-color="#84E0FF" stop-opacity="1"/></linearGradient><linearGradient x1="0.5" y1="0" x2="0.5" y2="1" id="master_svg2_7_164"><stop offset="0%" stop-color="#84E0FF" stop-opacity="1"/><stop offset="100%" stop-color="#00A6F5" stop-opacity="1"/></linearGradient></defs><g clip-path="url(#master_svg0_7_198)"><path d="M719.969578,699.34589C876.3446,689.06909,1000,558.97516,1000,400C1000,241.02481,876.3446,110.930931,719.969566,100.65408933C708.9476604,99.929737926,700,108.9543056,700,120.000002L700,680C700,691.04572,708.9476604,700.07037,719.96958,699.34601" fill-rule="evenodd" fill="url(#master_svg1_7_195)" fill-opacity="1" transform="matrix(-1,0,0,1,1400,0)"/><path d="M200,100L120.000004,100C108.9543056,100,100,108.9543056,100,120.000002L100,680C100,691.04572,108.9543056,700,120.000002,700L179.99999200000002,700C191.0457,700,200,691.04572,200,680L200,502.77307L308.09551999999996,690C311.66818,696.18805,318.27071,700,325.41602,700L394.69046,700C410.08646,700,419.70898,683.33331,412.01099,670L298.79111,473.89743C361.35162,438.35681,400,371.95105,400,300C400,189.543045,310.45695,100,200,100Z" fill-rule="evenodd" fill="url(#master_svg2_7_164)" fill-opacity="1"/></g></svg>